<!DOCTYPE svg PUBLIC "-//W3C//DTD SVG 1.1//EN" "http://www.w3.org/Graphics/SVG/1.1/DTD/svg11.dtd">
<!-- Uploaded to: SVG Repo, www.svgrepo.com, Transformed by: SVG Repo Mixer Tools -->
<svg version="1.1" id="Icons" xmlns="http://www.w3.org/2000/svg" xmlns:xlink="http://www.w3.org/1999/xlink" viewBox="0 0 32 32" xml:space="preserve" width="800px" height="800px" fill="#D7D7D7">
<g id="SVGRepo_bgCarrier" stroke-width="0"/>
<g id="SVGRepo_tracerCarrier" stroke-linecap="round" stroke-linejoin="round"/>
<g id="SVGRepo_iconCarrier"> <style type="text/css"> .st0{fill:none;stroke:#D7D7D7;stroke-width:2;stroke-linecap:round;stroke-linejoin:round;stroke-miterlimit:10;} </style> <path class="st0" d="M21,25H11c-2.2,0-4-1.8-4-4V11c0-2.2,1.8-4,4-4h10c2.2,0,4,1.8,4,4v10C25,23.2,23.2,25,21,25z"/> <path class="st0" d="M23,7H9l0.7-4.3c0.2-1,1-1.7,2-1.7h8.6c1,0,1.8,0.7,2,1.7L23,7z"/> <path class="st0" d="M20.3,31h-8.6c-1,0-1.8-0.7-2-1.7L9,25h14l-0.7,4.3C22.1,30.3,21.3,31,20.3,31z"/> <path class="st0" d="M20.4,13.5c-0.8-0.9-2.2-0.9-3.1,0L16,14.8l-1.3-1.3c-0.8-0.9-2.2-0.9-3.1,0s-0.8,2.3,0,3.2l1.3,1.3l3.1,3.2 l3.1-3.2l1.3-1.3C21.2,15.8,21.2,14.4,20.4,13.5z"/> </g>
</svg>